#N canvas 1089 425 595 444 36;
#X msg 96 83 10;
#X msg 210 81 5;
#X obj 123 178 +;
#X obj 161 1 bng 15 250 50 0 empty empty empty 17 7 0 10 -262144 -1
-1;
#X floatatom 112 301 5 0 0 0 - - -, f 5;
#X connect 0 0 2 0;
#X connect 1 0 2 1;
#X connect 2 0 4 0;
#X connect 3 0 1 0;
#X connect 3 0 0 0;
