#N canvas 65 274 450 300 10;
#X obj 133 156 print;
#X obj 122 49 bng 15 250 50 0 empty empty empty 17 7 0 10 -262144 -1
-1;
#X msg 128 104 Hello Visitor;
#X msg 268 53 bang;
#X connect 1 0 2 0;
#X connect 2 0 0 0;
#X connect 3 0 2 0;
