#N canvas 392 547 511 470 24;
#X obj 116 145 moses 50;
#X floatatom 119 52 5 0 0 0 - - -, f 5;
#X obj 27 292 print <50;
#X obj 205 273 print >50;
#X connect 0 0 2 0;
#X connect 0 1 3 0;
#X connect 1 0 0 0;
