#N canvas 1022 410 327 414 24;
#X obj 41 32 bng 15 250 50 0 empty empty empty 17 7 0 10 -262144 -1
-1;
#X obj 41 110 trigger b b;
#X obj 43 272 +;
#X floatatom 43 351 5 0 0 0 - - -, f 5;
#X msg 41 185 54;
#X msg 148 185 11;
#X connect 0 0 1 0;
#X connect 1 0 4 0;
#X connect 1 1 5 0;
#X connect 2 0 3 0;
#X connect 4 0 2 0;
#X connect 5 0 2 1;
