#N canvas 896 414 923 300 24;
#X obj 70 115 print;
#X msg 11 22 say hi;
#X msg 131 29 say hello;
#X msg 306 37 1;
#X obj 319 106 +;
#X floatatom 319 181 5 0 0 0 - - -, f 5;
#X msg 377 39 2;
#X obj 492 215 bng 50 250 50 0 empty empty empty 17 7 0 10 -262144
-159808 -1;
#X msg 453 25 bang;
#X obj 485 132 metro;
#X obj 579 71 hsl 200 25 600 100 0 0 empty empty empty -2 -8 0 10 -262144
-1 -1 17600 1;
#X msg 539 25 stop;
#X connect 1 0 0 0;
#X connect 2 0 0 0;
#X connect 3 0 4 0;
#X connect 4 0 5 0;
#X connect 6 0 4 1;
#X connect 8 0 9 0;
#X connect 9 0 7 0;
#X connect 10 0 9 1;
#X connect 11 0 9 0;
