#N canvas 649 283 450 300 24;
#X msg 106 40 open sample.wav;
#X obj 108 149 readsf~ 2;
#X msg 154 94 1;
#X obj 107 230 dac~;
#X obj 233 227 bng 40 250 50 0 empty empty empty 17 7 0 10 -262144
-4034 -16662;
#X connect 0 0 1 0;
#X connect 1 0 3 0;
#X connect 1 1 3 1;
#X connect 1 2 4 0;
#X connect 2 0 1 0;
