#N canvas 1083 400 836 566 24;
#X obj 35 51 vsl 15 128 0 127 0 0 empty empty empty 0 -9 0 10 -262144
-1 -1 0 1;
#X obj 35 215 print vslider;
#X obj 45 -153 hsl 256 15 0 100 0 0 empty empty empty -2 -8 0 10 -262144
-1 -1 0 1;
#X obj 42 -102 print vslider;
#X obj 395 -99 print bng;
#X obj 395 -160 bng 15 250 50 0 empty empty empty 17 7 0 10 -262144
-1 -1;
#X obj 396 -54 tgl 15 0 empty empty empty 17 7 0 10 -262144 -1 -1 0
1;
#X obj 396 4 print toggle;
#X obj 42 -51 nbx 5 14 -1e+37 1e+37 0 0 empty empty empty 0 -8 0 10
-262144 -1 -1 0 256;
#X obj 42 -5 print number;
#X obj 251 74 vradio 15 1 0 8 empty empty empty 0 -8 0 10 -262144 -1
-1 0;
#X obj 251 243 print vradio;
#X obj 544 253 vu 15 120 empty empty -1 -8 0 10 -66577 -1 1 0;
#X obj 542 66 adc~;
#X obj 543 129 env~;
#X obj 543 182 -100;
#X connect 0 0 1 0;
#X connect 2 0 3 0;
#X connect 5 0 4 0;
#X connect 6 0 7 0;
#X connect 8 0 9 0;
#X connect 10 0 11 0;
#X connect 13 0 14 0;
#X connect 14 0 15 0;
#X connect 15 0 12 0;
