#N canvas 566 262 755 412 24;
#X obj 98 9 bng 15 250 50 0 empty empty empty 17 7 0 10 -262144 -1
-1;
#X obj 100 57 trigger b b;
#X obj 125 199 +;
#X floatatom 119 291 5 0 0 0 - - -, f 5;
#X msg 80 139 6;
#X msg 231 157 5;
#X text 279 103 <<-Trigger override here!;
#X connect 0 0 1 0;
#X connect 1 0 4 0;
#X connect 1 1 5 0;
#X connect 2 0 3 0;
#X connect 4 0 2 0;
#X connect 5 0 2 1;
