#N canvas 240 496 450 300 24;
#X obj 136 115 *~ 0;
#X obj 135 197 dac~;
#X obj 237 43 hsl 128 30 0 1 0 0 empty empty empty -2 -8 0 10 -262144
-1 -1 400 1;
#X obj 136 2 noise~;
#X floatatom 289 165 5 0 0 0 - - -, f 5;
#X connect 0 0 1 0;
#X connect 0 0 1 1;
#X connect 2 0 0 1;
#X connect 2 0 4 0;
#X connect 3 0 0 0;
